<svg preserveAspectRatio="none" overflow="visible" style="display: block;" width="24" height="24" viewBox="0 0 24 24" fill="none" xmlns="http://www.w3.org/2000/svg">
<path id="Vector" d="M1.125 9.00062H7.875C8.32969 9.00062 8.74219 8.72875 8.91562 8.30689C9.08906 7.88504 8.99531 7.40224 8.67188 7.07882L6.48281 4.88985C10.0125 2.14308 15.1219 2.39151 18.3656 5.63513C21.8812 9.15061 21.8812 14.8457 18.3656 18.3612C14.85 21.8767 9.15469 21.8767 5.63906 18.3612C5.16094 17.8831 4.74844 17.3628 4.40156 16.8144C3.95625 16.1159 3.02812 15.9097 2.32969 16.355C1.63125 16.8003 1.425 17.7284 1.87031 18.4268C2.32969 19.158 2.87812 19.8517 3.51562 20.4845C8.20312 25.1718 15.7969 25.1718 20.4844 20.4845C25.1719 15.7972 25.1719 8.20377 20.4844 3.51647C16.0688 -0.903666 9.06094 -1.15678 4.34531 2.75712L1.92188 0.329096C1.59844 0.0103593 1.11563 -0.0880741 0.69375 0.0853563C0.271875 0.258787 0 0.67127 0 1.12594V7.87566C0 8.49907 0.501562 9.00062 1.125 9.00062Z" fill="black"/>
</svg>
