<svg width="90" height="90" viewBox="0 0 90 90" fill="none" xmlns="http://www.w3.org/2000/svg">
  <rect width="90" height="90" rx="45" fill="#F7E7D2"/>
  <circle cx="45" cy="45" r="38" fill="#FFF8ED"/>
  <path d="M22 61C30 52 37 49 45 49C53 49 60 52 68 61V73H22V61Z" fill="#7C9A71"/>
  <circle cx="36" cy="38" r="3.5" fill="#3D3A35"/>
  <circle cx="54" cy="38" r="3.5" fill="#3D3A35"/>
  <path d="M39 51C43 54 47 54 51 51" stroke="#3D3A35" stroke-width="3" stroke-linecap="round"/>
  <path d="M30 24C33 14 40 10 51 13C47 21 39 25 30 24Z" fill="#6E985F"/>
  <path d="M50 16C58 13 65 16 68 25C59 26 53 23 50 16Z" fill="#8BB777"/>
  <path d="M25 63C30 59 35 57 45 57C55 57 60 59 65 63" stroke="#49623E" stroke-width="4" stroke-linecap="round"/>
</svg>
